<?xml version="1.0" standalone="no"?>
<!DOCTYPE svg PUBLIC "-//W3C//DTD SVG 1.1//EN"
  "http://www.w3.org/Graphics/SVG/1.1/DTD/svg11.dtd">
<svg width="127.9499397277832mm" height="138.9739990234375mm" viewBox="-64 -68 127.9499397277832 138.9739990234375" xmlns="http://www.w3.org/2000/svg" version="1.1">
	<title>svgOutput</title>
	<desc>made with tinkercad</desc>
<path d="M 29.778026580810547 -32.220394134521484 L 30.995445251464844 -31.652523040771484 L 30.995641708374023 -31.65243148803711 L 31.321788787841797 -31.42399024963379 L 32.42226791381836 -30.653348922729492 L 32.768001556396484 -30.307615280151367 L 33.65334701538086 -29.422266006469727 L 33.88179016113281 -29.096118927001953 L 34.17879104614258 -28.672000885009766 L 34.65243148803711 -27.995641708374023 L 34.82078170776367 -27.634632110595703 L 35.38874435424805 -26.41701889038086 L 35.388954162597656 -26.416231155395508 L 35.4919548034668 -26.032384872436523 L 35.839351654052734 -24.735227584838867 L 35.83951187133789 -24.734622955322266 L 35.85335922241211 -24.576000213623047 L 35.8741455078125 -24.33783531188965 L 35.99128341674805 -23 L 35.95664978027344 -22.60321044921875 L 35.8396110534668 -21.266489028930664 L 35.83951187133789 -21.265377044677734 L 35.73630142211914 -20.8807430267334 L 35.62897872924805 -20.479999542236328 L 35.38874435424805 -19.58298110961914 L 35.220394134521484 -19.221973419189453 L 34.65243148803711 -18.004358291625977 L 34.42399215698242 -17.678211212158203 L 33.65334701538086 -16.577733993530273 L 33.652828216552734 -16.577213287353516 L 33.45961380004883 -16.384000778198242 L 32.768001556396484 -15.69238567352295 L 32.42226791381836 -15.346651077270508 L 32.09611892700195 -15.118210792541504 L 30.995840072631836 -14.34770679473877 L 30.995641708374023 -14.34756851196289 L 30.634632110595703 -14.179220199584961 L 29.41701889038086 -13.61125659942627 L 29.032384872436523 -13.50804615020752 L 28.672000885009766 -13.411529541015625 L 27.734622955322266 -13.160486221313477 L 27.33783531188965 -13.125853538513184 L 26 -13.008715629577637 L 25.99789810180664 -13.008898735046387 L 25.60321044921875 -13.04334831237793 L 24.576000213623047 -13.133288383483887 L 24.266489028930664 -13.160388946533203 L 24.265377044677734 -13.160486221313477 L 23.8807430267334 -13.263697624206543 L 22.58298110961914 -13.61125659942627 L 22.221973419189453 -13.779605865478516 L 21.004358291625977 -14.34756851196289 L 20.678211212158203 -14.576008796691895 L 20.479999542236328 -14.714812278747559 L 19.577733993530273 -15.346651077270508 L 19.577213287353516 -15.347172737121582 L 18.540386199951172 -16.384000778198242 L 18.346651077270508 -16.577733993530273 L 18.11821174621582 -16.903881072998047 L 17.347707748413086 -18.004159927368164 L 17.34756851196289 -18.004358291625977 L 17.17922019958496 -18.365367889404297 L 16.611257553100586 -19.58298110961914 L 16.508045196533203 -19.967615127563477 L 16.384000778198242 -20.4307918548584 L 16.160648345947266 -21.264772415161133 L 16.160486221313477 -21.265377044677734 L 16.125852584838867 -21.66216468811035 L 16.00871467590332 -23 L 16.04334831237793 -23.39678955078125 L 16.160388946533203 -24.733510971069336 L 16.160486221313477 -24.734622955322266 L 16.263696670532227 -25.1192569732666 L 16.384000778198242 -25.568458557128906 L 16.611257553100586 -26.41701889038086 L 16.779605865478516 -26.778026580810547 L 17.347476959228516 -27.995445251464844 L 17.34756851196289 -27.995641708374023 L 17.57600975036621 -28.321788787841797 L 17.82125473022461 -28.672000885009766 L 18.346651077270508 -29.422266006469727 L 19.577733993530273 -30.653348922729492 L 19.903881072998047 -30.88178825378418 L 20.479999542236328 -31.285234451293945 L 21.004159927368164 -31.652292251586914 L 21.004358291625977 -31.65243148803711 L 21.365367889404297 -31.82077980041504 L 22.58298110961914 -32.38874435424805 L 22.967615127563477 -32.4919548034668 L 23.998348236083984 -32.768001556396484 L 24.264772415161133 -32.839351654052734 L 24.265377044677734 -32.83951187133789 L 24.66216468811035 -32.8741455078125 L 26 -32.99128341674805 L 26.39678955078125 -32.95664978027344 L 27.733510971069336 -32.8396110534668 L 27.734622955322266 -32.83951187133789 L 28.001131057739258 -32.768001556396484 L 28.1192569732666 -32.73630142211914 L 28.672000885009766 -32.5882682800293 L 29.41701889038086 -32.38874435424805 L 29.778026580810547 -32.220394134521484 M -30 -14.199999809265137 L -30 -34 L -19.567981719970703 -34 L -10 -34 L -10 -14.199999809265137 L -10.100000381469727 -14.199999809265137 L -10.100000381469727 -12.100000381469727 L -10.102739334106445 -12.100000381469727 L -10.140543937683105 -12.099992752075195 L -19.975481033325195 -12.099992752075195 L -29.859455108642578 -12.099992752075195 L -29.897260665893555 -12.100000381469727 L -29.899999618530273 -12.100000381469727 L -29.899999618530273 -12.100000381469727 L -29.899999618530273 -14.199999809265137 L -30 -14.199999809265137 M 62.79928207397461 22.147153854370117 L 62.74915313720703 22.527999877929688 L 62.611412048339844 23.57440948486328 L 62.61128234863281 23.57539939880371 L 62.19648361206055 24.576000213623047 L 62.16875076293945 24.64290428161621 L 61.79999923706055 25.532991409301758 L 61.79999923706055 25.53314971923828 L 61.79999923706055 25.73676109313965 L 61.79999923706055 28.672000885009766 L 61.79999923706055 32 L 57.34400177001953 32 L 49.152000427246094 32 L 42.20000076293945 32 L 42.20000076293945 24.576000213623047 L 42.20000076293945 20.479999542236328 L 42.20000076293945 16.384000778198242 L 42.20000076293945 12 L 45.055999755859375 12 L 48.94919967651367 12 L 48.94944763183594 12 L 48.94949722290039 12 L 49.09135818481445 11.941197395324707 L 49.152000427246094 11.916068077087402 L 50.42339324951172 11.389217376708984 L 50.424598693847656 11.388717651367188 L 51.20000076293945 11.286882400512695 L 51.571754455566406 11.238059043884277 L 51.8034553527832 11.207559585571289 L 52.99951171875 11.05012321472168 L 53 11.050058364868164 L 53.24800109863281 11.082629203796387 L 54.147151947021484 11.20071792602539 L 54.57828140258789 11.257467269897461 L 55.29600143432617 11.351940155029297 L 55.57509994506836 11.388678550720215 L 55.575401306152344 11.388717651367188 L 56.19770431518555 11.6466703414917 L 56.6428337097168 11.830974578857422 L 57.050716400146484 12 L 57.05105972290039 12 L 57.05409240722656 12 L 57.05448532104492 12 L 57.05585479736328 12 L 57.34400177001953 12 L 61.439998626708984 12 L 61.79999923706055 12 L 61.79999923706055 12.031999588012695 L 61.79999923706055 12.288000106811523 L 61.79999923706055 16.384000778198242 L 61.79999923706055 16.466379165649414 L 61.79999923706055 16.466644287109375 L 62.06095504760742 17.096288681030273 L 62.21039962768555 17.456953048706055 L 62.61128234863281 18.42460060119629 L 62.6134033203125 18.440759658813477 L 62.761940002441406 19.571752548217773 L 62.881492614746094 20.479999542236328 L 62.9499397277832 21 L 62.949729919433594 21.001615524291992 L 62.79928207397461 22.147153854370117 M -63 -53 L -63 -56.82575607299805 L -63 -67 L -49 -67 L -49 -66.72249603271484 L -49 -61 L -49 -55.47555923461914 L -49 -53 L -59.23453903198242 -53 L -63 -53 M -12 44 L -11.800000190734863 44 L -11.800000190734863 36 L -10.100000381469727 36 L -10 36 L 0 36 L 7.800000190734863 36 L 7.800000190734863 44 L 8 44 L 8 44.099998474121094 L 8.899999618530273 44.099998474121094 L 8.899999618530273 49.152000427246094 L 8.899999618530273 50.243099212646484 L 16 50.30510711669922 L 20.422666549682617 50.34373092651367 L 22.399999618530273 50.361000061035156 L 23.598241806030273 50.37150955200195 L 23.998260498046875 50.37498092651367 L 23.8655948638916 65.53600311279297 L 23.828283309936523 69.80000305175781 L 23.826759338378906 69.9739990234375 L 16 69.90550994873047 L 4.228236675262451 69.80250549316406 L 4.0069990158081055 69.80056762695312 L 3.9641332626342773 69.8001937866211 L 3.9416487216949463 69.80000305175781 L 0 69.80000305175781 L -10 69.80000305175781 L -10.100000381469727 69.80000305175781 L -10.899999618530273 69.80000305175781 L -12 69.80000305175781 L -12 44 z" fill="none" stroke="rgb(0,0,255)" stroke-width="0.01mm" />
</svg>